# Blender 4.2.19 LTS
# www.blender.org
mtllib logo.mtl
g NEW_VERSION___BODY_PART.001_Scene.035
v -0.047817 0.195627 -1.863786
v -0.047720 0.205938 -1.865824
v -0.048175 0.206377 -1.865913
v -0.048265 0.195172 -1.863698
v -0.075004 0.206627 -1.865922
v -0.064828 0.195328 -1.863703
v -0.065579 0.195640 -1.863764
v -0.075214 0.206270 -1.865854
v -0.033617 0.212072 -1.868397
v -0.033898 0.182666 -1.862585
v -0.033631 0.182174 -1.862501
v -0.033341 0.212556 -1.868506
v -0.032979 0.181961 -1.862494
v -0.032689 0.212745 -1.868577
v -0.010341 0.181530 -1.863590
v -0.010051 0.212314 -1.869673
v 0.012297 0.181538 -1.862470
v 0.012588 0.212318 -1.868557
v 0.012950 0.181739 -1.862479
v 0.013240 0.212117 -1.868484
v 0.013225 0.182227 -1.862559
v 0.013506 0.211629 -1.868376
v 0.045916 0.194458 -1.862975
v 0.055573 0.205056 -1.865136
v 0.055364 0.205413 -1.865219
v 0.028537 0.205126 -1.865602
v 0.045165 0.194146 -1.862922
v 0.028602 0.193970 -1.863156
v 0.028156 0.194425 -1.863265
v 0.028081 0.204687 -1.865514
v -0.079138 0.187643 -1.857800
v -0.044822 0.187147 -1.858313
v -0.044860 0.186732 -1.860459
v -0.079176 0.187229 -1.859946
v -0.079922 0.187545 -1.859990
v -0.079884 0.187959 -1.857849
v -0.099878 0.210193 -1.861798
v -0.099916 0.209774 -1.863944
v -0.047244 0.206525 -1.866659
v -0.074689 0.206816 -1.865125
v -0.047865 0.206426 -1.865526
v -0.075635 0.206939 -1.866233
v -0.046910 0.206681 -1.866990
v -0.076745 0.207083 -1.866563
v -0.075844 0.206582 -1.866161
v -0.065291 0.195771 -1.863151
v -0.074902 0.206459 -1.865052
v -0.065659 0.195254 -1.864146
v -0.064904 0.194942 -1.864097
v -0.064540 0.195455 -1.863102
v -0.047975 0.195213 -1.863352
v -0.047363 0.194684 -1.864362
v -0.044382 0.187598 -1.858409
v -0.044130 0.209302 -1.862618
v -0.044168 0.208888 -1.864764
v -0.044420 0.187188 -1.860555
v -0.044577 0.209741 -1.862694
v -0.099734 0.210541 -1.861867
v -0.099768 0.210127 -1.864013
v -0.044619 0.209327 -1.864840
v -0.046451 0.206246 -1.866909
v -0.046915 0.195143 -1.864458
v -0.047531 0.195673 -1.863448
v -0.047045 0.194191 -1.864582
v -0.046594 0.194630 -1.864666
v -0.065535 0.194483 -1.864317
v -0.066261 0.194811 -1.864371
v -0.076954 0.206730 -1.866494
v -0.047410 0.205987 -1.865450
v -0.046789 0.206086 -1.866583
v 0.018939 0.217644 -1.864560
v 0.018677 0.218132 -1.864656
v 0.018671 0.217734 -1.866683
v 0.018937 0.217242 -1.866575
v 0.018560 0.177620 -1.858744
v 0.018561 0.178018 -1.856726
v 0.018290 0.177533 -1.856629
v 0.018288 0.177131 -1.858655
v 0.018023 0.217935 -1.866744
v 0.018029 0.218341 -1.864697
v -0.009995 0.218604 -1.864712
v -0.010000 0.218017 -1.867687
v -0.038018 0.218866 -1.864723
v -0.038020 0.218464 -1.866771
v -0.038668 0.218271 -1.866709
v -0.038667 0.218674 -1.864686
v -0.038944 0.217787 -1.866603
v -0.038942 0.218189 -1.864589
v -0.039315 0.178559 -1.856754
v -0.039321 0.178165 -1.858769
v -0.039055 0.177673 -1.858681
v -0.039053 0.178071 -1.856658
v -0.038407 0.177460 -1.858665
v -0.038405 0.177862 -1.856618
v -0.010382 0.177599 -1.856602
v -0.010387 0.177012 -1.859581
v 0.017642 0.177336 -1.856591
v 0.017636 0.176934 -1.858639
v 0.012950 0.181411 -1.864136
v 0.013226 0.181899 -1.864221
v 0.013502 0.211301 -1.870034
v 0.013236 0.211789 -1.870142
v 0.012290 0.181210 -1.864128
v -0.010345 0.181201 -1.865247
v -0.032979 0.181632 -1.864151
v -0.033631 0.181850 -1.864159
v -0.032688 0.212417 -1.870238
v -0.033345 0.212224 -1.870164
v -0.010054 0.211986 -1.871335
v 0.012584 0.211990 -1.870215
v -0.033620 0.211740 -1.870055
v -0.033897 0.182342 -1.864242
v 0.056306 0.205503 -1.866330
v 0.057415 0.205639 -1.866665
v 0.027581 0.205347 -1.867075
v 0.027915 0.205200 -1.866737
v 0.056515 0.205146 -1.866251
v 0.057628 0.205282 -1.866586
v 0.046282 0.193916 -1.863958
v 0.046886 0.193465 -1.864172
v 0.045531 0.193605 -1.863900
v 0.046156 0.193141 -1.864110
v 0.027984 0.193416 -1.864152
v 0.027665 0.192919 -1.864363
v 0.027541 0.193875 -1.864261
v 0.027218 0.193358 -1.864460
v 0.027459 0.204765 -1.866650
v 0.027120 0.204916 -1.866979
v 0.080564 0.208765 -1.861981
v 0.080600 0.208293 -1.864115
v 0.060517 0.186248 -1.859620
v 0.060481 0.186716 -1.857487
v 0.059734 0.186408 -1.857429
v 0.059766 0.185940 -1.859567
v 0.025451 0.185571 -1.860058
v 0.025415 0.186039 -1.857925
v 0.080457 0.208646 -1.864197
v 0.025013 0.186027 -1.860163
v 0.025301 0.208055 -1.864987
v 0.024849 0.207620 -1.864899
v 0.024977 0.186490 -1.858029
v 0.025265 0.208523 -1.862853
v 0.024813 0.208088 -1.862766
v 0.080421 0.209114 -1.862060
v -0.034838 0.181427 -1.864062
v -0.034543 0.212675 -1.870240
v -0.034267 0.213163 -1.870349
v -0.034571 0.180931 -1.863975
v -0.033606 0.213356 -1.870420
v -0.010045 0.212913 -1.871519
v 0.013521 0.212913 -1.870399
v 0.014177 0.212708 -1.870325
v 0.014443 0.212215 -1.870217
v 0.014148 0.180968 -1.864035
v 0.013872 0.180475 -1.863951
v -0.033915 0.180713 -1.863967
v -0.010354 0.180270 -1.865062
v 0.013212 0.180270 -1.863942
vn -0.0017 -0.1945 -0.9809
vn -0.0017 -0.1944 -0.9809
vn -0.0506 -0.1925 -0.9800
vn -0.0506 -0.1926 -0.9800
vn -0.0505 -0.1926 -0.9800
vn -0.0016 -0.1944 -0.9809
vn 0.0491 -0.1945 -0.9797
vn 0.0490 -0.1945 -0.9797
vn 0.0159 -0.2140 -0.9767
vn 0.0159 -0.2141 -0.9767
vn 0.0160 -0.2141 -0.9767
vn 0.0158 -0.2141 -0.9767
vn -0.0196 -0.9824 0.1858
vn -0.0129 -0.7067 -0.7074
vn 0.0020 -0.9819 0.1896
vn -0.0265 -0.7029 -0.7108
vn -0.2643 -0.3998 -0.8777
vn -0.7407 -0.6559 0.1452
vn -0.7563 -0.6403 0.1342
vn -0.2661 -0.3900 -0.8815
vn -0.0313 -0.9824 -0.1841
vn -0.0317 -0.9941 -0.1034
vn -0.0043 -0.9941 -0.1081
vn -0.0039 -0.9824 -0.1867
vn 0.0034 0.5699 -0.8217
vn -0.0103 0.5405 -0.8413
vn 0.5621 0.3451 -0.7516
vn 0.6900 0.4936 -0.5294
vn 0.6645 0.5328 -0.5240
vn 0.5464 0.3822 -0.7452
vn 0.0161 0.7634 -0.6457
vn 0.0230 0.8846 -0.4657
vn -0.0200 0.8807 -0.4732
vn -0.0211 0.7615 -0.6478
vn 0.9994 -0.0342 0.0052
vn 0.9161 -0.0654 -0.3956
vn 1.0000 0.0049 0.0052
vn 0.9063 -0.1105 -0.4078
vn 0.0196 0.9824 -0.1857
vn -0.0038 0.8221 -0.5694
vn 0.0039 0.9816 -0.1910
vn 0.0117 0.8358 -0.5490
vn 0.6871 -0.1280 -0.7152
vn -0.8152 -0.0694 -0.5750
vn -0.8664 -0.0518 -0.4966
vn -0.0159 -0.4565 -0.8896
vn 0.6656 -0.1652 -0.7278
vn -0.0236 -0.4545 -0.8904
vn -0.1289 -0.2883 -0.9488
vn -0.1309 -0.2825 -0.9503
vn -0.8665 -0.1203 -0.4845
vn -0.8172 -0.1320 -0.5610
vn 1.0000 -0.0029 0.0052
vn 0.4677 0.4233 -0.7759
vn 0.6137 0.7752 -0.1500
vn 0.8367 -0.1084 -0.5369
vn 0.8366 -0.1203 -0.5344
vn 0.9998 -0.0167 0.0052
vn 0.5982 -0.7858 0.1573
vn 0.4574 -0.6950 -0.5547
vn 0.0338 0.7478 -0.6631
vn 0.0157 0.9804 -0.1961
vn 0.0098 0.9804 -0.1965
vn 0.0064 0.7517 -0.6594
vn 0.0039 0.9804 -0.1967
vn -0.0190 0.7478 -0.6636
vn -0.4583 0.4311 -0.7772
vn -0.5984 0.7849 -0.1606
vn -0.8369 -0.0929 -0.5394
vn -0.9998 0.0167 -0.0052
vn -1.0000 0.0029 -0.0052
vn -0.8369 -0.1046 -0.5372
vn -0.4693 -0.6853 -0.5570
vn -0.6137 -0.7752 0.1500
vn -0.0345 -0.9433 -0.3301
vn -0.0157 -0.9804 0.1961
vn -0.0098 -0.9804 0.1966
vn -0.0090 -0.9453 -0.3261
vn -0.0039 -0.9804 0.1967
vn 0.0184 -0.9433 -0.3314
vn -0.9998 0.0186 -0.0053
vn -0.4527 0.5151 -0.7278
vn -0.5984 0.7869 -0.1505
vn -0.8684 -0.0811 -0.4892
vn -0.8684 -0.0968 -0.4863
vn -1.0000 0.0014 -0.0032
vn -0.4657 -0.7439 -0.4794
vn 0.0239 0.7556 -0.6546
vn -0.0000 0.9804 -0.1968
vn 0.0098 0.9805 -0.1965
vn 0.0069 0.7595 -0.6505
vn 0.0177 0.9804 -0.1960
vn -0.0093 0.7575 -0.6527
vn 0.4642 0.5063 -0.7267
vn -0.0248 -0.9492 -0.3138
vn 0.5984 -0.7869 0.1505
vn 0.4512 -0.7537 -0.4780
vn -0.0000 -0.9804 0.1968
vn -0.0077 -0.9492 -0.3147
vn -0.0177 -0.9804 0.1960
vn 0.0085 -0.9492 -0.3147
vn 0.9998 -0.0186 0.0053
vn 0.8676 -0.1125 -0.4843
vn 0.8676 -0.0968 -0.4877
vn 1.0000 -0.0010 0.0052
vn -0.0001 -0.9863 -0.1649
vn -0.0005 0.5503 -0.8349
vn 0.0051 -0.9159 -0.4013
vn 0.0272 -0.9863 -0.1626
vn -0.0006 -0.9961 -0.0884
vn 0.0269 -0.9961 -0.0842
vn -0.5600 0.3275 -0.7610
vn 0.1291 -0.3060 -0.9433
vn -0.5464 0.3666 -0.7531
vn 0.1290 -0.3118 -0.9414
vn -0.0132 0.7478 -0.6638
vn 0.0212 -0.4760 -0.8792
vn 0.0240 0.7439 -0.6679
vn 0.0134 -0.4780 -0.8783
vn 0.8134 -0.0870 -0.5752
vn -0.6658 -0.1808 -0.7239
vn 0.8172 -0.1496 -0.5566
vn -0.6874 -0.1437 -0.7119
vn 0.7529 -0.6400 0.1537
vn 0.2616 -0.4213 -0.8684
vn 0.2636 -0.4115 -0.8725
vn 0.7391 -0.6560 0.1529
vn 0.0156 -0.9767 0.2140
vn 0.0242 -0.7185 -0.6951
vn 0.0085 -0.7243 -0.6894
vn -0.0060 -0.9765 0.2153
vn 0.0111 0.5796 -0.8148
vn 0.0060 0.8065 -0.5913
vn -0.9080 -0.1164 -0.4025
vn 0.0232 0.8690 -0.4943
vn -0.0200 0.8729 -0.4875
vn -0.6629 0.5230 -0.5358
vn -0.6883 0.4819 -0.5422
vn 0.8657 -0.1359 -0.4818
vn 0.8657 -0.0674 -0.4959
vn -0.0098 0.8221 -0.5693
vn -0.9178 -0.0713 -0.3906
vn -0.9995 -0.0313 -0.0100
vn -0.0155 0.9766 -0.2143
vn -0.9999 0.0088 -0.0053
vn -0.0009 0.9765 -0.2154
vn -0.6539 -0.1457 -0.7424
vn -0.6539 -0.1359 -0.7442
vn -0.3363 0.2258 -0.9143
vn -0.3430 -0.5503 -0.7612
vn -0.0317 0.5034 -0.8635
vn 0.0055 0.5073 -0.8618
vn 0.0407 0.5014 -0.8642
vn 0.3420 0.2199 -0.9136
vn 0.6519 -0.1489 -0.7435
vn 0.6520 -0.1574 -0.7417
vn 0.3334 -0.5581 -0.7598
vn -0.0428 -0.7928 -0.6080
vn -0.0076 -0.7967 -0.6044
vn 0.0296 -0.7947 -0.6063
vt 0.706674 0.475993
vt 0.709590 0.587374
vt 0.706674 0.584580
vt 0.709469 0.473002
vt 0.883150 0.585111
vt 0.836342 0.470795
vt 0.841120 0.472760
vt 0.884464 0.582791
vt 0.623583 0.400996
vt 0.622157 0.645641
vt 0.623583 0.642129
vt 0.622157 0.397484
vt 0.618729 0.647103
vt 0.618729 0.396022
vt 0.499718 0.652394
vt 0.499718 0.398965
vt 0.380708 0.647103
vt 0.380708 0.393078
vt 0.377280 0.645641
vt 0.377280 0.394541
vt 0.375854 0.642129
vt 0.375854 0.398052
vt 0.812467 0.463166
vt 0.772514 0.459440
vt 0.770371 0.462001
vt 0.810948 0.460436
vt 0.811815 0.459989
vt 0.813622 0.462439
vt 0.826896 0.431727
vt 0.823980 0.433506
vt 0.451233 0.198940
vt 0.440632 0.187799
vt 0.186039 0.185210
vt 0.169150 0.194665
vt 0.455630 0.202759
vt 0.154730 0.198521
vt 0.165722 0.189644
vt 0.183430 0.181679
vt 0.268935 0.062277
vt 0.260868 0.050363
vt 0.270676 0.046693
vt 0.277039 0.059427
vt 0.449053 0.072794
vt 0.462104 0.062985
vt 0.769468 0.461135
vt 0.772551 0.435574
vt 0.769859 0.433422
vt 0.771983 0.458881
vt 0.770735 0.432481
vt 0.823720 0.433143
vt 0.826430 0.431065
vt 0.773138 0.435052
vt 0.694080 0.598767
vt 0.704317 0.587617
vt 0.707028 0.590169
vt 0.691416 0.596187
vt 0.467562 0.069962
vt 0.453441 0.077610
vt 0.706963 0.468922
vt 0.704373 0.471568
vt 0.692366 0.445206
vt 0.694918 0.442467
vt 0.911292 0.437018
vt 0.841521 0.469081
vt 0.845787 0.470972
vt 0.915688 0.438834
vt 0.976889 0.591725
vt 0.891543 0.587896
vt 0.890323 0.590029
vt 0.976070 0.593830
vt 0.445737 0.184129
vt 0.457418 0.193686
vt 0.462150 0.197422
vt 0.473254 0.064038
vt 0.467628 0.057228
vt 0.262637 0.040181
vt 0.253406 0.045258
vt 0.151712 0.194366
vt 0.367517 0.608445
vt 0.368868 0.609256
vt 0.367806 0.608296
vt 0.368486 0.609628
vt 0.345412 0.609628
vt 0.346307 0.608539
vt 0.346064 0.608389
vt 0.345068 0.609293
vt 0.369231 0.608781
vt 0.367964 0.607914
vt 0.367536 0.592386
vt 0.369287 0.592321
vt 0.366847 0.577193
vt 0.367955 0.576401
vt 0.367610 0.575991
vt 0.366660 0.576895
vt 0.367275 0.575675
vt 0.366409 0.576718
vt 0.346670 0.577053
vt 0.345729 0.575973
vt 0.345384 0.576336
vt 0.346400 0.577221
vt 0.345068 0.576783
vt 0.346269 0.577547
vt 0.345934 0.592936
vt 0.344192 0.592917
vt 0.345869 0.608036
vt 0.344704 0.608865
vt 0.363875 0.585670
vt 0.363614 0.587458
vt 0.364210 0.586070
vt 0.363363 0.587179
vt 0.349325 0.587253
vt 0.348756 0.585670
vt 0.348412 0.586136
vt 0.349073 0.587496
vt 0.363800 0.587961
vt 0.364574 0.586713
vt 0.367163 0.609144
vt 0.366139 0.609219
vt 0.365757 0.633131
vt 0.364844 0.631938
vt 0.364732 0.632544
vt 0.365393 0.633876
vt 0.350144 0.632553
vt 0.349716 0.634425
vt 0.350303 0.633103
vt 0.349353 0.633783
vt 0.346726 0.611138
vt 0.347750 0.611054
vt 0.348039 0.586881
vt 0.348952 0.588101
vt 0.350042 0.634807
vt 0.350526 0.633336
vt 0.364480 0.632786
vt 0.365058 0.634342
vt 0.632954 0.387647
vt 0.632954 0.650364
vt 0.627616 0.644970
vt 0.631389 0.653251
vt 0.627616 0.393041
vt 0.626060 0.647830
vt 0.626060 0.390181
vt 0.631389 0.384769
vt 0.627625 0.654444
vt 0.622306 0.649013
vt 0.493086 0.653484
vt 0.493086 0.658915
vt 0.622306 0.388998
vt 0.377671 0.651295
vt 0.372352 0.656726
vt 0.368588 0.655534
vt 0.373917 0.650112
vt 0.367033 0.652655
vt 0.372370 0.647253
vt 0.373376 0.396106
vt 0.368039 0.390712
vt 0.369595 0.387834
vt 0.627625 0.383577
vt 0.374932 0.393246
vt 0.501758 0.389985
vt 0.501758 0.395407
vt 0.373358 0.386641
vt 0.378677 0.392063
vt 0.345664 0.352119
vt 0.341938 0.353302
vt 0.501591 0.353293
vt 0.654081 0.351570
vt 0.657807 0.352753
vt 0.340401 0.356153
vt 0.659344 0.355603
vt 0.342580 0.654938
vt 0.344127 0.657788
vt 0.658412 0.655459
vt 0.656866 0.658310
vt 0.347844 0.658971
vt 0.492685 0.662660
vt 0.653149 0.659493
s 1
usemtl Cheverlot_logo_1
f 1/1/1 3/2/1 2/3/1
f 3/2/1 1/1/1 4/4/1
f 3/2/1 4/4/1 5/5/1
f 5/5/1 4/4/1 6/6/2
f 5/5/1 6/6/2 7/7/1
f 5/5/1 7/7/1 8/8/1
f 9/9/3 11/10/4 10/11/4
f 12/12/5 11/10/4 9/9/3
f 12/12/5 13/13/4 11/10/4
f 14/14/4 13/13/4 12/12/5
f 14/14/4 15/15/1 13/13/4
f 15/15/1 14/14/4 16/16/6
f 16/16/6 17/17/7 15/15/1
f 18/18/7 17/17/7 16/16/6
f 18/18/7 19/19/8 17/17/7
f 20/20/7 19/19/8 18/18/7
f 20/20/7 21/21/7 19/19/8
f 21/21/7 20/20/7 22/22/7
f 23/7/9 25/5/10 24/8/10
f 25/5/10 23/7/9 26/2/10
f 26/2/10 23/7/9 27/6/10
f 26/2/10 27/6/10 28/4/11
f 26/2/10 28/4/11 29/1/10
f 26/2/10 29/1/10 30/3/12
f 31/23/13 33/24/14 32/25/15
f 31/23/13 34/26/16 33/24/14
f 35/27/17 34/26/16 31/23/13
f 35/27/17 31/23/13 36/28/18
f 37/29/19 35/27/17 36/28/18
f 37/29/19 38/30/20 35/27/17
f 39/31/21 41/32/22 40/33/23
f 39/31/21 40/33/23 42/34/24
f 42/34/24 43/35/25 39/31/21
f 42/34/24 44/36/26 43/35/25
f 45/37/27 47/38/28 46/39/29
f 45/37/27 46/39/29 48/40/30
f 49/41/31 48/40/30 46/39/29
f 49/41/31 46/39/29 50/42/32
f 49/41/31 50/42/32 51/43/33
f 49/41/31 51/43/33 52/44/34
f 53/45/35 55/46/36 54/47/37
f 53/45/35 56/48/38 55/46/36
f 57/49/39 59/50/40 58/51/41
f 57/49/39 60/52/42 59/50/40
f 60/53/42 61/54/43 43/55/25
f 60/53/42 55/56/36 61/54/43
f 51/43/33 62/57/44 52/44/34
f 51/43/33 63/58/45 62/57/44
f 40/33/23 45/37/27 42/34/24
f 40/33/23 47/38/28 45/37/27
f 64/59/46 65/60/47 56/61/38
f 64/59/46 56/61/38 33/62/14
f 34/63/16 64/59/46 33/62/14
f 34/63/16 66/64/48 64/59/46
f 34/63/16 67/65/49 66/64/48
f 34/63/16 35/66/17 67/65/49
f 38/67/20 67/65/49 35/66/17
f 38/67/20 68/68/50 67/65/49
f 44/69/26 68/68/50 38/67/20
f 44/69/26 38/67/20 59/70/40
f 37/29/19 59/50/40 38/30/20
f 37/29/19 58/51/41 59/50/40
f 55/46/36 57/49/39 54/47/37
f 55/46/36 60/52/42 57/49/39
f 53/45/35 33/24/14 56/48/38
f 53/45/35 32/25/15 33/24/14
f 39/31/21 69/71/51 41/32/22
f 39/31/21 70/72/52 69/71/51
f 62/57/44 69/71/51 70/72/52
f 62/57/44 63/58/45 69/71/51
f 56/61/38 61/54/43 55/56/36
f 56/61/38 65/60/47 61/54/43
f 60/53/42 44/69/26 59/70/40
f 60/53/42 43/55/25 44/69/26
f 39/31/21 43/35/25 61/73/43
f 39/31/21 61/73/43 70/72/52
f 70/72/52 61/73/43 65/74/47
f 70/72/52 65/74/47 62/57/44
f 62/57/44 65/74/47 64/75/46
f 62/57/44 64/75/46 52/44/34
f 52/44/34 64/75/46 66/76/48
f 52/44/34 66/76/48 49/41/31
f 49/41/31 66/76/48 67/77/49
f 49/41/31 67/77/49 48/40/30
f 48/40/30 67/77/49 68/78/50
f 48/40/30 68/78/50 45/37/27
f 45/37/27 68/78/50 44/36/26
f 45/37/27 44/36/26 42/34/24
f 71/79/53 73/80/54 72/81/55
f 71/79/53 74/82/56 73/80/54
f 71/79/53 75/83/57 74/82/56
f 71/79/53 76/84/58 75/83/57
f 75/83/57 76/84/58 77/85/59
f 75/83/57 77/85/59 78/86/60
f 72/81/55 73/80/54 79/87/61
f 72/81/55 79/87/61 80/88/62
f 81/89/63 80/88/62 79/87/61
f 81/89/63 79/87/61 82/90/64
f 83/91/65 81/89/63 82/90/64
f 83/91/65 82/90/64 84/92/66
f 85/93/67 83/91/65 84/92/66
f 85/93/67 86/94/68 83/91/65
f 87/95/69 86/94/68 85/93/67
f 87/95/69 88/96/70 86/94/68
f 89/97/71 88/96/70 87/95/69
f 89/97/71 87/95/69 90/98/72
f 89/97/71 90/98/72 91/99/73
f 89/97/71 91/99/73 92/100/74
f 92/100/74 91/99/73 93/101/75
f 92/100/74 93/101/75 94/102/76
f 95/103/77 94/102/76 93/101/75
f 95/103/77 93/101/75 96/104/78
f 97/105/79 95/103/77 96/104/78
f 97/105/79 96/104/78 98/106/80
f 78/86/60 97/105/79 98/106/80
f 78/86/60 77/85/59 97/105/79
f 21/107/81 99/108/82 19/109/83
f 21/107/81 100/110/84 99/108/82
f 101/111/85 100/110/84 21/107/81
f 101/111/85 21/107/81 22/112/86
f 20/113/74 101/111/85 22/112/86
f 20/113/74 102/114/87 101/111/85
f 19/109/83 99/108/82 103/115/88
f 19/109/83 103/115/88 17/116/89
f 103/115/88 15/117/90 17/116/89
f 103/115/88 104/118/91 15/117/90
f 104/118/91 13/119/92 15/117/90
f 104/118/91 105/120/93 13/119/92
f 13/119/92 105/120/93 106/121/94
f 13/119/92 106/121/94 11/122/55
f 107/123/95 12/124/96 108/125/97
f 107/123/95 14/126/98 12/124/96
f 107/123/95 16/127/77 14/126/98
f 107/123/95 109/128/99 16/127/77
f 109/128/99 18/129/100 16/127/77
f 109/128/99 110/130/101 18/129/100
f 18/129/100 110/130/101 102/114/87
f 18/129/100 102/114/87 20/113/74
f 108/125/97 12/124/96 9/131/102
f 108/125/97 9/131/102 111/132/103
f 112/133/104 111/132/103 9/131/102
f 112/133/104 9/131/102 10/134/105
f 11/122/55 112/133/104 10/134/105
f 11/122/55 106/121/94 112/133/104
f 113/34/106 115/35/107 114/36/108
f 113/34/106 116/31/109 115/35/107
f 116/31/109 113/34/106 25/33/110
f 116/31/109 25/33/110 26/32/111
f 117/37/112 113/34/106 114/36/108
f 117/37/112 114/36/108 118/78/113
f 119/40/114 117/37/112 118/78/113
f 119/40/114 118/78/113 120/77/115
f 121/41/116 119/40/114 120/77/115
f 121/41/116 120/77/115 122/76/117
f 123/44/118 121/41/116 122/76/117
f 123/44/118 122/76/117 124/75/119
f 125/57/120 123/44/118 124/75/119
f 125/57/120 124/75/119 126/74/121
f 127/72/122 125/57/120 126/74/121
f 127/72/122 126/74/121 128/73/123
f 116/31/109 127/72/122 128/73/123
f 116/31/109 128/73/123 115/35/107
f 129/29/124 131/27/125 130/30/126
f 129/29/124 132/28/127 131/27/125
f 131/27/125 132/28/127 133/23/128
f 131/27/125 133/23/128 134/26/129
f 133/23/128 135/24/130 134/26/129
f 133/23/128 136/25/131 135/24/130
f 114/69/132 137/70/133 130/67/126
f 114/69/132 130/67/126 118/68/113
f 130/67/126 120/65/115 118/68/113
f 130/67/126 131/66/125 120/65/115
f 134/63/129 120/65/115 131/66/125
f 134/63/129 122/64/117 120/65/115
f 134/63/129 124/59/119 122/64/117
f 134/63/129 135/62/130 124/59/119
f 124/59/119 135/62/130 138/61/134
f 124/59/119 138/61/134 126/60/121
f 121/41/116 123/44/118 28/43/135
f 121/41/116 28/43/135 27/42/136
f 121/41/116 27/42/136 23/39/137
f 121/41/116 23/39/137 119/40/114
f 117/37/112 119/40/114 23/39/137
f 117/37/112 23/39/137 24/38/138
f 125/57/120 30/71/139 29/58/140
f 125/57/120 127/72/122 30/71/139
f 116/31/109 30/71/139 127/72/122
f 116/31/109 26/32/111 30/71/139
f 139/53/141 114/69/132 115/55/107
f 139/53/141 137/70/133 114/69/132
f 138/61/134 128/54/123 126/60/121
f 138/61/134 140/56/142 128/54/123
f 141/45/143 135/24/130 136/25/131
f 141/45/143 138/48/134 135/24/130
f 140/46/142 142/49/144 139/52/141
f 140/46/142 143/47/145 142/49/144
f 129/29/124 137/50/133 144/51/146
f 129/29/124 130/30/126 137/50/133
f 25/33/110 117/37/112 24/38/138
f 25/33/110 113/34/106 117/37/112
f 28/43/135 125/57/120 29/58/140
f 28/43/135 123/44/118 125/57/120
f 139/53/141 128/54/123 140/56/142
f 139/53/141 115/55/107 128/54/123
f 142/49/144 137/50/133 139/52/141
f 142/49/144 144/51/146 137/50/133
f 141/45/143 140/46/142 138/48/134
f 141/45/143 143/47/145 140/46/142
f 145/135/147 146/136/148 111/137/103
f 111/137/103 146/136/148 147/138/149
f 145/135/147 111/137/103 112/139/104
f 111/137/103 147/138/149 108/140/97
f 106/141/94 145/135/147 112/139/104
f 106/141/94 148/142/150 145/135/147
f 108/140/97 147/138/149 149/143/151
f 108/140/97 149/143/151 107/144/95
f 149/143/151 109/145/99 107/144/95
f 149/143/151 150/146/152 109/145/99
f 105/147/93 148/142/150 106/141/94
f 150/146/152 110/148/101 109/145/99
f 150/146/152 151/149/153 110/148/101
f 110/148/101 151/149/153 152/150/154
f 110/148/101 152/150/154 102/151/87
f 102/151/87 152/150/154 153/152/155
f 102/151/87 153/152/155 101/153/85
f 153/152/155 100/154/84 101/153/85
f 153/152/155 154/155/156 100/154/84
f 155/156/157 100/154/84 154/155/156
f 105/147/93 156/157/158 148/142/150
f 155/156/157 99/158/82 100/154/84
f 157/159/159 156/157/158 105/147/93
f 157/159/159 105/147/93 104/160/91
f 158/161/160 99/158/82 155/156/157
f 158/161/160 157/159/159 104/160/91
f 158/161/160 103/162/88 99/158/82
f 158/161/160 104/160/91 103/162/88
f 98/163/80 158/161/160 155/156/157
f 98/163/80 157/159/159 158/161/160
f 98/163/80 155/156/157 78/164/60
f 98/163/80 96/165/78 157/159/159
f 96/165/78 156/157/158 157/159/159
f 96/165/78 93/166/75 156/157/158
f 156/157/158 93/166/75 91/167/73
f 156/157/158 91/167/73 148/142/150
f 78/164/60 155/156/157 154/155/156
f 78/164/60 154/155/156 75/168/57
f 148/142/150 91/167/73 90/169/72
f 148/142/150 90/169/72 145/135/147
f 74/170/56 75/168/57 154/155/156
f 74/170/56 154/155/156 153/152/155
f 152/150/154 74/170/56 153/152/155
f 152/150/154 73/171/54 74/170/56
f 90/169/72 146/136/148 145/135/147
f 90/169/72 87/172/69 146/136/148
f 85/173/67 146/136/148 87/172/69
f 85/173/67 147/138/149 146/136/148
f 151/149/153 73/171/54 152/150/154
f 151/149/153 79/174/61 73/171/54
f 82/175/64 79/174/61 151/149/153
f 82/175/64 151/149/153 150/146/152
f 84/176/66 147/138/149 85/173/67
f 84/176/66 82/175/64 150/146/152
f 84/176/66 149/143/151 147/138/149
f 84/176/66 150/146/152 149/143/151
g NEW_VERSION___BODY_PART.002_Scene.036
v 0.053583 -0.097046 2.353918
v 0.053739 -0.097349 2.353825
v 0.045397 -0.106265 2.354060
v 0.031528 -0.097070 2.358870
v 0.044764 -0.106523 2.354151
v 0.031151 -0.106540 2.357210
v 0.031134 -0.097435 2.358893
v 0.030801 -0.106150 2.357360
v 0.020045 -0.091314 2.357025
v 0.020267 -0.091724 2.356932
v 0.020096 -0.116580 2.355975
v 0.019866 -0.116994 2.355925
v 0.019499 -0.091150 2.357108
v 0.019316 -0.117171 2.355947
v 0.000489 -0.091338 2.358901
v 0.000306 -0.117359 2.357738
v -0.018610 -0.091191 2.358825
v -0.018793 -0.117212 2.357663
v -0.019160 -0.091359 2.358793
v -0.019339 -0.117035 2.357689
v -0.019394 -0.091769 2.358718
v -0.019565 -0.116621 2.357762
v -0.030011 -0.097686 2.359327
v -0.029787 -0.106269 2.357179
v -0.030139 -0.106646 2.357009
v -0.030401 -0.097316 2.359342
v -0.043816 -0.106310 2.354237
v -0.052550 -0.096775 2.354856
v -0.044443 -0.106043 2.354177
v -0.052710 -0.097070 2.354744
v 0.055406 -0.113182 2.334037
v 0.027294 -0.113351 2.340811
v 0.027722 -0.113671 2.355309
v 0.055831 -0.113498 2.348535
v 0.056455 -0.113240 2.348431
v 0.056030 -0.112920 2.333933
v 0.073275 -0.094276 2.333133
v 0.073700 -0.094596 2.347635
v 0.073597 -0.094297 2.347717
v 0.073168 -0.093977 2.333215
v 0.030900 -0.096923 2.359659
v 0.053176 -0.096894 2.353317
v 0.031201 -0.097029 2.358614
v 0.054156 -0.096783 2.354053
v 0.030689 -0.096787 2.359990
v 0.055129 -0.096664 2.354115
v 0.054317 -0.097087 2.353959
v 0.045042 -0.106162 2.353607
v 0.053332 -0.097197 2.353224
v 0.045526 -0.106585 2.354364
v 0.044902 -0.106843 2.354468
v 0.044418 -0.106421 2.353710
v 0.030848 -0.106507 2.356979
v 0.030532 -0.106934 2.357934
v 0.026952 -0.112965 2.340965
v 0.028029 -0.094941 2.358630
v 0.027377 -0.113285 2.355464
v 0.027605 -0.094621 2.344132
v 0.027990 -0.094256 2.344105
v 0.028415 -0.094572 2.358604
v 0.030295 -0.097152 2.360013
v 0.029955 -0.106966 2.358325
v 0.030309 -0.107344 2.358179
v 0.045456 -0.107229 2.354541
v 0.046067 -0.106958 2.354445
v 0.055293 -0.096964 2.354022
v 0.030182 -0.106544 2.358088
v 0.030503 -0.106117 2.357133
v 0.030811 -0.097398 2.358641
v 0.030510 -0.097296 2.359685
v -0.024811 -0.086718 2.334613
v -0.024581 -0.086308 2.334676
v -0.023765 -0.086616 2.357403
v -0.023994 -0.087026 2.357328
v -0.024231 -0.120519 2.354820
v -0.025046 -0.120215 2.328589
v -0.024824 -0.120625 2.328504
v -0.024005 -0.120933 2.354743
v -0.023215 -0.086448 2.357427
v -0.024035 -0.086136 2.334683
v -0.000450 -0.086111 2.333621
v 0.000403 -0.086563 2.357148
v 0.023135 -0.086087 2.332559
v 0.023952 -0.086398 2.355302
v 0.024494 -0.086563 2.355227
v 0.023681 -0.086255 2.332504
v -0.024278 -0.120793 2.328450
v -0.023459 -0.121105 2.354709
v 0.000159 -0.121220 2.354431
v -0.000692 -0.120769 2.327387
v 0.023708 -0.121056 2.352584
v 0.022893 -0.120744 2.326325
v 0.023439 -0.120572 2.326332
v 0.024253 -0.120880 2.352571
v 0.024720 -0.086973 2.355134
v 0.023903 -0.086665 2.332419
v 0.023668 -0.120162 2.326395
v 0.024483 -0.120465 2.352625
v -0.019277 -0.117285 2.359092
v -0.019503 -0.116871 2.359165
v -0.019327 -0.092024 2.360118
v -0.019098 -0.091609 2.360193
v -0.018727 -0.117462 2.359062
v 0.000368 -0.117610 2.359138
v 0.019375 -0.117421 2.357346
v 0.019929 -0.117244 2.357324
v 0.019557 -0.091404 2.358512
v 0.020107 -0.091568 2.358429
v 0.000551 -0.091593 2.360304
v -0.018544 -0.091445 2.360224
v 0.020334 -0.091978 2.358332
v 0.020158 -0.116830 2.357379
v -0.053502 -0.096713 2.355635
v -0.054471 -0.096598 2.355741
v -0.029838 -0.097177 2.360715
v -0.030062 -0.097288 2.360382
v -0.053666 -0.097009 2.355523
v -0.054639 -0.096894 2.355633
v -0.044903 -0.106519 2.354917
v -0.045436 -0.106897 2.354992
v -0.044271 -0.106786 2.354978
v -0.044825 -0.107176 2.355040
v -0.029786 -0.107143 2.357913
v -0.029558 -0.107570 2.358124
v -0.029434 -0.106765 2.358083
v -0.029202 -0.107209 2.358286
v -0.029672 -0.097657 2.360368
v -0.029444 -0.097542 2.360697
v -0.073254 -0.094046 2.350095
v -0.073143 -0.093751 2.350190
v -0.056056 -0.112711 2.348909
v -0.055428 -0.112977 2.348970
v -0.027099 -0.113671 2.354706
v -0.026747 -0.113297 2.354876
v -0.027222 -0.095236 2.359399
v -0.027611 -0.094867 2.359414
v -0.026384 -0.112850 2.340391
v -0.026735 -0.113223 2.340221
v -0.026859 -0.094789 2.344914
v -0.027244 -0.094420 2.344928
v -0.072890 -0.093595 2.335609
v -0.072780 -0.093304 2.335704
v -0.055693 -0.112263 2.334423
v -0.055065 -0.112530 2.334484
v 0.020939 -0.117610 2.357202
v 0.021121 -0.091199 2.358438
v 0.020895 -0.090785 2.358531
v 0.020705 -0.118028 2.357148
v 0.020344 -0.090616 2.358615
v 0.000554 -0.090805 2.360444
v -0.019320 -0.090657 2.360401
v -0.019874 -0.090826 2.360369
v -0.020108 -0.091244 2.360294
v -0.020294 -0.117655 2.359058
v -0.020064 -0.118073 2.358986
v 0.020151 -0.118204 2.357169
v 0.000361 -0.118397 2.358998
v -0.019514 -0.118250 2.358956
vn 0.2149 -0.1769 0.9605
vn 0.2148 -0.1770 0.9605
vn 0.0935 -0.0459 0.9946
vn 0.0935 -0.0460 0.9946
vn 0.0936 -0.0459 0.9946
vn 0.0446 -0.0440 0.9980
vn -0.0043 -0.0440 0.9990
vn -0.0042 -0.0440 0.9990
vn -0.1975 -0.2434 0.9496
vn -0.1976 -0.2434 0.9496
vn -0.1975 -0.2435 0.9496
vn 0.0088 -1.0000 -0.0000
vn 0.0543 -0.9648 0.2573
vn -0.0128 -0.9999 -0.0001
vn 0.0759 -0.9628 0.2592
vn 0.6713 -0.6149 0.4138
vn 0.7246 -0.6872 -0.0518
vn 0.7402 -0.6716 -0.0342
vn 0.6811 -0.6011 0.4180
vn 0.0334 0.9902 0.1354
vn 0.0068 1.0000 0.0001
vn 0.0665 -0.9804 0.1852
vn 0.0493 -0.9922 0.1147
vn 0.0218 -0.9922 0.1229
vn 0.0429 -0.9785 0.2018
vn 0.1805 0.5836 0.7917
vn 0.1975 0.5542 0.8086
vn -0.3808 0.3626 0.8506
vn -0.5538 0.5073 0.6602
vn -0.5322 0.5484 0.6450
vn -0.3690 0.3998 0.8390
vn 0.1287 0.7751 0.6185
vn 0.0846 0.8925 0.4431
vn 0.1277 0.8885 0.4406
vn 0.1659 0.7713 0.6145
vn -0.9999 0.0107 -0.0052
vn -0.9891 -0.0107 0.1472
vn -0.9890 0.0322 0.1441
vn -0.9982 0.0499 0.0325
vn -0.0089 1.0000 -0.0000
vn 0.0160 0.9922 0.1238
vn -0.5138 -0.1105 0.8508
vn -0.4884 -0.1476 0.8601
vn 0.2075 -0.4428 0.8723
vn 0.2153 -0.4389 0.8724
vn 0.3345 -0.2727 0.9021
vn 0.3344 -0.2688 0.9033
vn 0.9218 -0.0675 0.3819
vn 0.9535 -0.0518 0.2970
vn 0.9516 -0.1183 0.2836
vn 0.9199 -0.1301 0.3701
vn -1.0000 0.0083 -0.0026
vn -0.6005 0.7615 0.2441
vn -0.5995 0.7986 0.0528
vn -0.9872 0.0010 0.1597
vn -0.9872 -0.0127 0.1592
vn -1.0000 -0.0049 -0.0052
vn -0.6033 -0.7967 0.0361
vn -0.5825 -0.7967 0.1614
vn -0.0038 0.9863 0.1649
vn -0.0049 1.0000 -0.0000
vn -0.0010 1.0000 -0.0000
vn 0.0076 0.9863 0.1647
vn 0.0049 1.0000 -0.0000
vn 0.0158 0.9863 0.1641
vn 0.6178 0.7615 0.1963
vn 0.6013 0.7986 -0.0248
vn -0.0088 -1.0000 -0.0000
vn -0.0092 -0.9980 0.0619
vn 0.0046 -0.9980 0.0624
vn 0.0010 -1.0000 -0.0000
vn 0.0183 -0.9980 0.0598
vn 0.0108 -0.9999 0.0001
vn 0.6033 -0.7967 -0.0361
vn 0.5947 -0.7947 0.1216
vn 0.9956 -0.0049 0.0935
vn 1.0000 0.0030 0.0052
vn 0.9999 -0.0108 0.0052
vn 0.9956 -0.0186 0.0916
vn 0.9984 0.0030 -0.0572
vn 0.4900 0.5229 0.6974
vn 0.6103 0.7830 0.1201
vn 0.8862 -0.0205 0.4629
vn 0.8881 -0.0362 0.4582
vn 0.9983 -0.0147 -0.0555
vn 0.6001 -0.7830 -0.1638
vn 0.4814 -0.7400 0.4698
vn 0.0113 0.7673 0.6412
vn 0.0157 0.9844 0.1755
vn 0.0079 0.9844 0.1760
vn 0.0291 0.7693 0.6382
vn -0.0019 0.9844 0.1762
vn 0.0445 0.7673 0.6397
vn -0.4271 0.5229 0.7376
vn -0.6001 0.7830 0.1638
vn 0.0325 -0.9433 0.3304
vn -0.6103 -0.7830 -0.1201
vn -0.4357 -0.7419 0.5096
vn -0.0157 -0.9844 -0.1755
vn -0.0079 -0.9844 -0.1759
vn 0.0154 -0.9433 0.3316
vn 0.0019 -0.9844 -0.1762
vn -0.0007 -0.9433 0.3320
vn -0.9984 -0.0030 0.0572
vn -0.8425 -0.0264 0.5380
vn -0.8406 -0.0108 0.5416
vn -0.9985 0.0150 0.0533
vn -0.0388 -0.9902 0.1340
vn -0.1501 0.5249 0.8378
vn -0.0850 -0.9277 0.3636
vn -0.0622 -0.9902 0.1249
vn -0.0208 -0.9980 0.0589
vn -0.0481 -0.9980 0.0399
vn 0.4129 0.2981 0.8606
vn -0.3028 -0.3333 0.8929
vn 0.3992 0.3373 0.8526
vn -0.3028 -0.3383 0.8910
vn -0.1042 0.7282 0.6774
vn -0.1872 -0.5014 0.8447
vn -0.1414 0.7243 0.6748
vn -0.1794 -0.5042 0.8447
vn -0.9063 -0.0948 0.4118
vn 0.5186 -0.2101 0.8288
vn -0.9063 -0.1555 0.3931
vn 0.5421 -0.1731 0.8223
vn -0.1578 0.5542 0.8173
vn -0.0134 0.9883 0.1522
vn -0.6639 -0.6266 0.4082
vn -0.6541 -0.6403 0.4027
vn -0.0804 -0.9687 0.2348
vn -0.0589 -0.9707 0.2331
vn 0.9895 -0.0303 0.1413
vn 0.9915 0.0127 0.1293
vn 0.0042 0.9902 0.1394
vn -0.1093 0.8534 0.5097
vn -0.0662 0.8573 0.5106
vn 0.5566 0.4976 0.6653
vn 0.5781 0.4565 0.6763
vn -0.9410 -0.1379 0.3090
vn -0.9431 -0.0713 0.3249
vn 1.0000 0.0010 0.0053
vn -0.0048 -1.0000 -0.0000
vn 0.9978 0.0401 0.0532
vn 0.0264 0.9997 0.0001
vn -0.7437 -0.6676 -0.0335
vn 0.0128 0.9999 0.0001
vn -0.7279 -0.6833 -0.0565
vn -0.0264 -0.9997 -0.0001
vn 0.6834 -0.0538 0.7281
vn 0.6834 -0.0460 0.7286
vn 0.3795 0.2395 0.8937
vn 0.3744 -0.5406 0.7534
vn 0.0748 0.5171 0.8527
vn 0.0375 0.5210 0.8528
vn 0.0024 0.5171 0.8559
vn -0.2971 0.2375 0.9248
vn -0.6150 -0.0401 0.7875
vn -0.6150 -0.0499 0.7869
vn -0.3042 -0.5405 0.7844
vn 0.0642 -0.7829 0.6188
vn 0.0290 -0.7869 0.6164
vn -0.0082 -0.7830 0.6220
vt 0.883150 0.585111
vt 0.841120 0.472760
vt 0.884464 0.582791
vt 0.709590 0.587374
vt 0.836342 0.470795
vt 0.709469 0.473002
vt 0.706674 0.584580
vt 0.706674 0.475993
vt 0.622157 0.397484
vt 0.623583 0.642129
vt 0.623583 0.400996
vt 0.622157 0.645641
vt 0.618729 0.396022
vt 0.618729 0.647103
vt 0.499718 0.398965
vt 0.499718 0.652394
vt 0.380708 0.393078
vt 0.380708 0.647103
vt 0.377280 0.394541
vt 0.377280 0.645641
vt 0.375854 0.398052
vt 0.375854 0.642129
vt 0.812467 0.463166
vt 0.772514 0.459440
vt 0.770371 0.462001
vt 0.810948 0.460436
vt 0.811815 0.459989
vt 0.813622 0.462439
vt 0.826896 0.431727
vt 0.823980 0.433506
vt 0.823720 0.433143
vt 0.826430 0.431065
vt 0.451233 0.198940
vt 0.440632 0.187799
vt 0.186039 0.185210
vt 0.169150 0.194665
vt 0.455630 0.202759
vt 0.154730 0.198521
vt 0.165722 0.189644
vt 0.183430 0.181679
vt 0.268935 0.062277
vt 0.260868 0.050363
vt 0.270676 0.046693
vt 0.277039 0.059427
vt 0.449053 0.072794
vt 0.462104 0.062985
vt 0.769468 0.461135
vt 0.771983 0.458881
vt 0.772551 0.435574
vt 0.769859 0.433422
vt 0.770735 0.432481
vt 0.773138 0.435052
vt 0.694080 0.598767
vt 0.704317 0.587617
vt 0.707028 0.590169
vt 0.691416 0.596187
vt 0.692366 0.445206
vt 0.704373 0.471568
vt 0.706963 0.468922
vt 0.694918 0.442467
vt 0.911292 0.437018
vt 0.841521 0.469081
vt 0.845787 0.470972
vt 0.915688 0.438834
vt 0.976889 0.591725
vt 0.891543 0.587896
vt 0.890323 0.590029
vt 0.976070 0.593830
vt 0.467562 0.069962
vt 0.453441 0.077610
vt 0.445737 0.184129
vt 0.457418 0.193686
vt 0.462150 0.197422
vt 0.473254 0.064038
vt 0.467628 0.057228
vt 0.262637 0.040181
vt 0.253406 0.045258
vt 0.151712 0.194366
vt 0.367517 0.608445
vt 0.368868 0.609256
vt 0.367806 0.608296
vt 0.368486 0.609628
vt 0.345412 0.609628
vt 0.346307 0.608539
vt 0.346064 0.608389
vt 0.345068 0.609293
vt 0.369231 0.608781
vt 0.367964 0.607914
vt 0.367536 0.592386
vt 0.369287 0.592321
vt 0.366847 0.577193
vt 0.367955 0.576401
vt 0.367610 0.575991
vt 0.366660 0.576895
vt 0.345869 0.608036
vt 0.344704 0.608865
vt 0.344192 0.592917
vt 0.345934 0.592936
vt 0.345068 0.576783
vt 0.346269 0.577547
vt 0.346400 0.577221
vt 0.345384 0.576336
vt 0.367275 0.575675
vt 0.366409 0.576718
vt 0.346670 0.577053
vt 0.345729 0.575973
vt 0.363875 0.585670
vt 0.363614 0.587458
vt 0.364210 0.586070
vt 0.363363 0.587179
vt 0.349325 0.587253
vt 0.348756 0.585670
vt 0.348412 0.586136
vt 0.349073 0.587496
vt 0.363800 0.587961
vt 0.364574 0.586713
vt 0.367163 0.609144
vt 0.366139 0.609219
vt 0.365757 0.633131
vt 0.364844 0.631938
vt 0.364732 0.632544
vt 0.365393 0.633876
vt 0.350144 0.632553
vt 0.349716 0.634425
vt 0.350303 0.633103
vt 0.349353 0.633783
vt 0.346726 0.611138
vt 0.347750 0.611054
vt 0.348039 0.586881
vt 0.348952 0.588101
vt 0.350042 0.634807
vt 0.350526 0.633336
vt 0.364480 0.632786
vt 0.365058 0.634342
vt 0.632954 0.387647
vt 0.632954 0.650364
vt 0.627616 0.644970
vt 0.631389 0.653251
vt 0.627616 0.393041
vt 0.626060 0.647830
vt 0.626060 0.390181
vt 0.631389 0.384769
vt 0.627625 0.654444
vt 0.622306 0.649013
vt 0.493086 0.653484
vt 0.493086 0.658915
vt 0.622306 0.388998
vt 0.377671 0.651295
vt 0.372352 0.656726
vt 0.368588 0.655534
vt 0.373917 0.650112
vt 0.367033 0.652655
vt 0.372370 0.647253
vt 0.373376 0.396106
vt 0.368039 0.390712
vt 0.369595 0.387834
vt 0.627625 0.383577
vt 0.374932 0.393246
vt 0.501758 0.389985
vt 0.501758 0.395407
vt 0.373358 0.386641
vt 0.378677 0.392063
vt 0.345664 0.352119
vt 0.341938 0.353302
vt 0.501591 0.353293
vt 0.654081 0.351570
vt 0.657807 0.352753
vt 0.340401 0.356153
vt 0.659344 0.355603
vt 0.342580 0.654938
vt 0.344127 0.657788
vt 0.658412 0.655459
vt 0.656866 0.658310
vt 0.347844 0.658971
vt 0.492685 0.662660
vt 0.653149 0.659493
s 1
usemtl Cheverlot_logo_1
f 159/177/161 161/178/161 160/179/161
f 161/178/161 159/177/161 162/180/161
f 161/178/161 162/180/161 163/181/161
f 163/181/161 162/180/161 164/182/161
f 164/182/161 162/180/161 165/183/161
f 164/182/161 165/183/161 166/184/162
f 167/185/163 169/186/164 168/187/163
f 169/186/164 167/185/163 170/188/163
f 170/188/163 167/185/163 171/189/165
f 170/188/163 171/189/165 172/190/163
f 172/190/163 171/189/165 173/191/166
f 172/190/163 173/191/166 174/192/166
f 175/193/167 174/192/166 173/191/166
f 174/192/166 175/193/167 176/194/168
f 176/194/168 175/193/167 177/195/167
f 176/194/168 177/195/167 178/196/168
f 178/196/168 177/195/167 179/197/167
f 178/196/168 179/197/167 180/198/168
f 181/183/169 183/182/170 182/184/169
f 183/182/170 181/183/169 184/180/169
f 183/182/170 184/180/169 185/181/171
f 185/181/171 184/180/169 186/177/169
f 185/181/171 186/177/169 187/178/170
f 187/178/170 186/177/169 188/179/169
f 189/199/172 191/200/173 190/201/174
f 189/199/172 192/202/175 191/200/173
f 193/203/176 192/202/175 189/199/172
f 193/203/176 189/199/172 194/204/177
f 195/205/178 193/203/176 194/204/177
f 195/205/178 196/206/179 193/203/176
f 195/205/178 197/207/180 196/206/179
f 195/205/178 198/208/181 197/207/180
f 199/209/182 201/210/183 200/211/184
f 199/209/182 200/211/184 202/212/185
f 202/212/185 203/213/186 199/209/182
f 202/212/185 204/214/187 203/213/186
f 205/215/188 207/216/189 206/217/190
f 205/215/188 206/217/190 208/218/191
f 209/219/192 208/218/191 206/217/190
f 209/219/192 206/217/190 210/220/193
f 209/219/192 210/220/193 211/221/194
f 209/219/192 211/221/194 212/222/195
f 213/223/196 215/224/197 214/225/198
f 213/223/196 214/225/198 216/226/199
f 214/225/198 217/227/200 216/226/199
f 214/225/198 218/228/201 217/227/200
f 213/223/196 191/200/173 215/224/197
f 213/223/196 190/201/174 191/200/173
f 217/227/200 197/207/180 198/208/181
f 217/227/200 218/228/201 197/207/180
f 218/229/201 219/230/202 203/231/186
f 218/229/201 214/232/198 219/230/202
f 215/233/197 219/230/202 214/232/198
f 215/233/197 220/234/203 219/230/202
f 221/235/204 220/234/203 215/233/197
f 221/235/204 215/233/197 191/236/173
f 192/237/175 221/235/204 191/236/173
f 192/237/175 222/238/205 221/235/204
f 192/237/175 223/239/206 222/238/205
f 192/237/175 193/240/176 223/239/206
f 196/241/179 223/239/206 193/240/176
f 196/241/179 224/242/207 223/239/206
f 204/243/187 224/242/207 196/241/179
f 204/243/187 196/241/179 197/244/180
f 211/221/194 225/245/208 212/222/195
f 211/221/194 226/246/209 225/245/208
f 200/211/184 205/215/188 202/212/185
f 200/211/184 207/216/189 205/215/188
f 199/209/182 227/247/210 201/210/183
f 199/209/182 228/248/211 227/247/210
f 225/245/208 227/247/210 228/248/211
f 225/245/208 226/246/209 227/247/210
f 218/229/201 204/243/187 197/244/180
f 218/229/201 203/231/186 204/243/187
f 199/209/182 203/213/186 219/249/202
f 199/209/182 219/249/202 228/248/211
f 228/248/211 219/249/202 220/250/203
f 228/248/211 220/250/203 225/245/208
f 225/245/208 220/250/203 221/251/204
f 225/245/208 221/251/204 212/222/195
f 212/222/195 221/251/204 222/252/205
f 212/222/195 222/252/205 209/219/192
f 209/219/192 222/252/205 223/253/206
f 209/219/192 223/253/206 208/218/191
f 208/218/191 223/253/206 224/254/207
f 208/218/191 224/254/207 205/215/188
f 205/215/188 224/254/207 204/214/187
f 205/215/188 204/214/187 202/212/185
f 229/255/212 231/256/213 230/257/214
f 229/255/212 232/258/215 231/256/213
f 229/255/212 233/259/216 232/258/215
f 229/255/212 234/260/217 233/259/216
f 233/259/216 234/260/217 235/261/218
f 233/259/216 235/261/218 236/262/219
f 230/257/214 231/256/213 237/263/220
f 230/257/214 237/263/220 238/264/221
f 239/265/222 238/264/221 237/263/220
f 239/265/222 237/263/220 240/266/223
f 241/267/224 239/265/222 240/266/223
f 241/267/224 240/266/223 242/268/225
f 243/269/226 241/267/224 242/268/225
f 243/269/226 244/270/227 241/267/224
f 236/262/219 235/261/218 245/271/228
f 236/262/219 245/271/228 246/272/229
f 245/271/228 247/273/230 246/272/229
f 245/271/228 248/274/231 247/273/230
f 248/274/231 249/275/232 247/273/230
f 248/274/231 250/276/233 249/275/232
f 251/277/234 249/275/232 250/276/233
f 251/277/234 252/278/235 249/275/232
f 253/279/236 244/270/227 243/269/226
f 253/279/236 254/280/237 244/270/227
f 255/281/238 254/280/237 253/279/236
f 255/281/238 252/278/235 251/277/234
f 255/281/238 253/279/236 256/282/239
f 255/281/238 256/282/239 252/278/235
f 180/283/240 257/284/241 178/285/242
f 180/283/240 258/286/243 257/284/241
f 259/287/244 258/286/243 180/283/240
f 259/287/244 180/283/240 179/288/245
f 177/289/246 259/287/244 179/288/245
f 177/289/246 260/290/247 259/287/244
f 178/285/242 257/284/241 261/291/248
f 178/285/242 261/291/248 176/292/249
f 261/291/248 174/293/250 176/292/249
f 261/291/248 262/294/251 174/293/250
f 262/294/251 172/295/252 174/293/250
f 262/294/251 263/296/253 172/295/252
f 172/295/252 263/296/253 264/297/254
f 172/295/252 264/297/254 170/298/255
f 265/299/256 167/300/257 266/301/258
f 265/299/256 171/302/259 167/300/257
f 265/299/256 173/303/260 171/302/259
f 265/299/256 267/304/261 173/303/260
f 267/304/261 175/305/262 173/303/260
f 267/304/261 268/306/263 175/305/262
f 175/305/262 268/306/263 260/290/247
f 175/305/262 260/290/247 177/289/246
f 266/301/258 167/300/257 168/307/264
f 266/301/258 168/307/264 269/308/265
f 270/309/266 269/308/265 168/307/264
f 270/309/266 168/307/264 169/310/267
f 170/298/255 270/309/266 169/310/267
f 170/298/255 264/297/254 270/309/266
f 271/212/268 273/213/269 272/214/270
f 271/212/268 274/209/271 273/213/269
f 274/209/271 271/212/268 186/211/272
f 274/209/271 186/211/272 184/210/273
f 275/215/274 271/212/268 272/214/270
f 275/215/274 272/214/270 276/254/275
f 277/218/276 275/215/274 276/254/275
f 277/218/276 276/254/275 278/253/277
f 279/219/278 277/218/276 278/253/277
f 279/219/278 278/253/277 280/252/279
f 281/222/280 279/219/278 280/252/279
f 281/222/280 280/252/279 282/251/281
f 283/245/282 281/222/280 282/251/281
f 283/245/282 282/251/281 284/250/283
f 285/248/284 283/245/282 284/250/283
f 285/248/284 284/250/283 286/249/285
f 274/209/271 285/248/284 286/249/285
f 274/209/271 286/249/285 273/213/269
f 272/243/286 288/244/287 287/241/288
f 272/243/286 287/241/288 276/242/275
f 287/241/288 278/239/277 276/242/275
f 287/241/288 289/240/289 278/239/277
f 290/237/290 278/239/277 289/240/289
f 290/237/290 280/238/279 278/239/277
f 290/237/290 282/235/281 280/238/279
f 290/237/290 291/236/291 282/235/281
f 282/235/281 291/236/291 292/233/292
f 282/235/281 292/233/292 284/234/283
f 292/233/292 286/230/285 284/234/283
f 292/233/292 293/232/293 286/230/285
f 294/229/294 286/230/285 293/232/293
f 294/229/294 273/231/269 286/230/285
f 279/219/278 281/222/280 183/221/295
f 279/219/278 183/221/295 185/220/296
f 279/219/278 185/220/296 187/217/297
f 279/219/278 187/217/297 277/218/276
f 275/215/274 277/218/276 187/217/297
f 275/215/274 187/217/297 188/216/298
f 283/245/282 181/247/299 182/246/300
f 283/245/282 285/248/284 181/247/299
f 274/209/271 181/247/299 285/248/284
f 274/209/271 184/210/273 181/247/299
f 294/229/294 272/243/286 273/231/269
f 294/229/294 288/244/287 272/243/286
f 295/223/301 291/200/291 296/201/302
f 295/223/301 292/224/292 291/200/291
f 295/223/301 293/225/293 292/224/292
f 295/223/301 297/226/303 293/225/293
f 293/225/293 297/226/303 298/227/304
f 293/225/293 298/227/304 294/228/294
f 299/205/305 288/207/287 300/208/306
f 299/205/305 287/206/288 288/207/287
f 299/205/305 289/203/289 287/206/288
f 299/205/305 301/204/307 289/203/289
f 289/203/289 301/204/307 302/199/308
f 289/203/289 302/199/308 290/202/290
f 302/199/308 291/200/291 290/202/290
f 302/199/308 296/201/302 291/200/291
f 186/211/272 275/215/274 188/216/298
f 186/211/272 271/212/268 275/215/274
f 183/221/295 283/245/282 182/246/300
f 183/221/295 281/222/280 283/245/282
f 298/227/304 288/207/287 294/228/294
f 298/227/304 300/208/306 288/207/287
f 303/311/309 304/312/310 269/313/265
f 269/313/265 304/312/310 305/314/311
f 303/311/309 269/313/265 270/315/266
f 269/313/265 305/314/311 266/316/258
f 264/317/254 303/311/309 270/315/266
f 264/317/254 306/318/312 303/311/309
f 266/316/258 305/314/311 307/319/313
f 266/316/258 307/319/313 265/320/256
f 307/319/313 267/321/261 265/320/256
f 307/319/313 308/322/314 267/321/261
f 263/323/253 306/318/312 264/317/254
f 308/322/314 268/324/263 267/321/261
f 308/322/314 309/325/315 268/324/263
f 268/324/263 309/325/315 310/326/316
f 268/324/263 310/326/316 260/327/247
f 260/327/247 310/326/316 311/328/317
f 260/327/247 311/328/317 259/329/244
f 311/328/317 258/330/243 259/329/244
f 311/328/317 312/331/318 258/330/243
f 313/332/319 258/330/243 312/331/318
f 263/323/253 314/333/320 306/318/312
f 313/332/319 257/334/241 258/330/243
f 315/335/321 314/333/320 263/323/253
f 315/335/321 263/323/253 262/336/251
f 316/337/322 257/334/241 313/332/319
f 316/337/322 315/335/321 262/336/251
f 316/337/322 261/338/248 257/334/241
f 316/337/322 262/336/251 261/338/248
f 246/339/229 316/337/322 313/332/319
f 246/339/229 315/335/321 316/337/322
f 246/339/229 313/332/319 236/340/219
f 246/339/229 247/341/230 315/335/321
f 247/341/230 314/333/320 315/335/321
f 247/341/230 249/342/232 314/333/320
f 314/333/320 249/342/232 252/343/235
f 314/333/320 252/343/235 306/318/312
f 236/340/219 313/332/319 312/331/318
f 236/340/219 312/331/318 233/344/216
f 306/318/312 252/343/235 256/345/239
f 306/318/312 256/345/239 303/311/309
f 232/346/215 233/344/216 312/331/318
f 232/346/215 312/331/318 311/328/317
f 310/326/316 232/346/215 311/328/317
f 310/326/316 231/347/213 232/346/215
f 256/345/239 304/312/310 303/311/309
f 256/345/239 253/348/236 304/312/310
f 243/349/226 304/312/310 253/348/236
f 243/349/226 305/314/311 304/312/310
f 309/325/315 231/347/213 310/326/316
f 309/325/315 237/350/220 231/347/213
f 240/351/223 237/350/220 309/325/315
f 240/351/223 309/325/315 308/322/314
f 242/352/225 305/314/311 243/349/226
f 242/352/225 240/351/223 308/322/314
f 242/352/225 307/319/313 305/314/311
f 242/352/225 308/322/314 307/319/313
